<mxfile host="app.diagrams.net" agent="Mozilla/5.0 (Windows NT 10.0; Win64; x64; rv:135.0) Gecko/20100101 Firefox/135.0" version="26.0.16">
  <diagram name="Page-1" id="nqlKFKdoHtsAuPCRyzGd">
    <mxGraphModel dx="1384" dy="786" grid="1" gridSize="10" guides="1" tooltips="1" connect="1" arrows="1" fold="1" page="1" pageScale="1" pageWidth="850" pageHeight="1100" math="0" shadow="0">
      <root>
        <mxCell id="0" />
        <mxCell id="1" parent="0" />
        <mxCell id="5QrkAZULTKObhvFG992c-1" value="" style="ellipse;whiteSpace=wrap;html=1;movable=0;resizable=0;rotatable=0;deletable=0;editable=0;locked=1;connectable=0;" vertex="1" parent="1">
          <mxGeometry x="140" y="380" width="570" height="340" as="geometry" />
        </mxCell>
        <mxCell id="5QrkAZULTKObhvFG992c-2" value="Logins" style="shape=cylinder3;whiteSpace=wrap;html=1;boundedLbl=1;backgroundOutline=1;size=15;" vertex="1" parent="1">
          <mxGeometry x="220" y="480" width="40" height="60" as="geometry" />
        </mxCell>
        <mxCell id="5QrkAZULTKObhvFG992c-3" value="" style="shape=cylinder3;whiteSpace=wrap;html=1;boundedLbl=1;backgroundOutline=1;size=15;" vertex="1" parent="1">
          <mxGeometry x="290" y="480" width="40" height="60" as="geometry" />
        </mxCell>
        <mxCell id="5QrkAZULTKObhvFG992c-6" value="" style="shape=cylinder3;whiteSpace=wrap;html=1;boundedLbl=1;backgroundOutline=1;size=15;" vertex="1" parent="1">
          <mxGeometry x="220" y="560" width="40" height="60" as="geometry" />
        </mxCell>
        <mxCell id="5QrkAZULTKObhvFG992c-7" value="" style="shape=cylinder3;whiteSpace=wrap;html=1;boundedLbl=1;backgroundOutline=1;size=15;" vertex="1" parent="1">
          <mxGeometry x="290" y="560" width="40" height="60" as="geometry" />
        </mxCell>
        <mxCell id="5QrkAZULTKObhvFG992c-11" value="Master" style="text;html=1;align=center;verticalAlign=middle;whiteSpace=wrap;rounded=0;" vertex="1" parent="1">
          <mxGeometry x="210" y="535" width="60" height="30" as="geometry" />
        </mxCell>
        <mxCell id="5QrkAZULTKObhvFG992c-12" value="Model" style="text;html=1;align=center;verticalAlign=middle;whiteSpace=wrap;rounded=0;" vertex="1" parent="1">
          <mxGeometry x="280" y="535" width="60" height="30" as="geometry" />
        </mxCell>
        <mxCell id="5QrkAZULTKObhvFG992c-13" value="MSDB" style="text;html=1;align=center;verticalAlign=middle;whiteSpace=wrap;rounded=0;" vertex="1" parent="1">
          <mxGeometry x="210" y="620" width="60" height="30" as="geometry" />
        </mxCell>
        <mxCell id="5QrkAZULTKObhvFG992c-14" value="TempDB" style="text;html=1;align=center;verticalAlign=middle;whiteSpace=wrap;rounded=0;" vertex="1" parent="1">
          <mxGeometry x="280" y="620" width="60" height="30" as="geometry" />
        </mxCell>
        <mxCell id="5QrkAZULTKObhvFG992c-15" value="Database di sistema" style="text;html=1;align=center;verticalAlign=middle;whiteSpace=wrap;rounded=0;" vertex="1" parent="1">
          <mxGeometry x="220" y="440" width="120" height="30" as="geometry" />
        </mxCell>
        <mxCell id="5QrkAZULTKObhvFG992c-16" value="Istanza di SQL Server" style="text;html=1;align=center;verticalAlign=middle;whiteSpace=wrap;rounded=0;fontSize=20;" vertex="1" parent="1">
          <mxGeometry x="315" y="390" width="220" height="60" as="geometry" />
        </mxCell>
        <mxCell id="5QrkAZULTKObhvFG992c-17" value="Database utente" style="text;html=1;align=center;verticalAlign=middle;whiteSpace=wrap;rounded=0;" vertex="1" parent="1">
          <mxGeometry x="470" y="440" width="90" height="30" as="geometry" />
        </mxCell>
        <mxCell id="5QrkAZULTKObhvFG992c-21" value="" style="group" vertex="1" connectable="0" parent="1">
          <mxGeometry x="370" y="485" width="145" height="130" as="geometry" />
        </mxCell>
        <mxCell id="5QrkAZULTKObhvFG992c-8" value="" style="shape=cylinder3;whiteSpace=wrap;html=1;boundedLbl=1;backgroundOutline=1;size=15;" vertex="1" parent="5QrkAZULTKObhvFG992c-21">
          <mxGeometry width="145" height="130" as="geometry" />
        </mxCell>
        <mxCell id="5QrkAZULTKObhvFG992c-18" value="Schemi" style="ellipse;whiteSpace=wrap;html=1;" vertex="1" parent="5QrkAZULTKObhvFG992c-21">
          <mxGeometry x="10" y="35" width="60" height="40" as="geometry" />
        </mxCell>
        <mxCell id="5QrkAZULTKObhvFG992c-19" value="Schemi" style="ellipse;whiteSpace=wrap;html=1;" vertex="1" parent="5QrkAZULTKObhvFG992c-21">
          <mxGeometry x="10" y="80" width="60" height="40" as="geometry" />
        </mxCell>
        <mxCell id="5QrkAZULTKObhvFG992c-20" value="Utenti" style="whiteSpace=wrap;html=1;aspect=fixed;" vertex="1" parent="5QrkAZULTKObhvFG992c-21">
          <mxGeometry x="90" y="50" width="50" height="50" as="geometry" />
        </mxCell>
        <mxCell id="5QrkAZULTKObhvFG992c-22" value="" style="group" vertex="1" connectable="0" parent="1">
          <mxGeometry x="540" y="485" width="145" height="130" as="geometry" />
        </mxCell>
        <mxCell id="5QrkAZULTKObhvFG992c-23" value="" style="shape=cylinder3;whiteSpace=wrap;html=1;boundedLbl=1;backgroundOutline=1;size=15;" vertex="1" parent="5QrkAZULTKObhvFG992c-22">
          <mxGeometry width="145" height="130" as="geometry" />
        </mxCell>
        <mxCell id="5QrkAZULTKObhvFG992c-24" value="Schemi" style="ellipse;whiteSpace=wrap;html=1;" vertex="1" parent="5QrkAZULTKObhvFG992c-22">
          <mxGeometry x="10" y="35" width="60" height="40" as="geometry" />
        </mxCell>
        <mxCell id="5QrkAZULTKObhvFG992c-25" value="Schemi" style="ellipse;whiteSpace=wrap;html=1;" vertex="1" parent="5QrkAZULTKObhvFG992c-22">
          <mxGeometry x="10" y="80" width="60" height="40" as="geometry" />
        </mxCell>
        <mxCell id="5QrkAZULTKObhvFG992c-26" value="Utenti" style="whiteSpace=wrap;html=1;aspect=fixed;" vertex="1" parent="5QrkAZULTKObhvFG992c-22">
          <mxGeometry x="90" y="50" width="50" height="50" as="geometry" />
        </mxCell>
      </root>
    </mxGraphModel>
  </diagram>
</mxfile>
